<svg viewBox="0 0 720 300" xmlns="http://www.w3.org/2000/svg" role="img" aria-label="Fig. 1. Counts of positive / negative / null effects per outcome type (based on effect_direction; publication figure, theme-independent). Source: EduEvidence result.json."><rect width="720" height="300" fill="#FFFFFF"/><line x1="70" y1="250" x2="650" y2="250" stroke="#333" stroke-width="1"/><text x="106.2" y="266" text-anchor="middle" font-size="10" fill="#333">assignment_score</text><rect x="88.1" y="50.0" width="18.1" height="200.0" fill="#E69F00"/><text x="97.2" y="47.0" text-anchor="middle" font-size="9" fill="#333">3</text><rect x="106.2" y="250.0" width="18.1" height="1.0" fill="#56B4E9"/><rect x="124.4" y="250.0" width="18.1" height="1.0" fill="#009E73"/><text x="178.8" y="266" text-anchor="middle" font-size="10" fill="#333">independent_problem_solving</text><rect x="160.6" y="250.0" width="18.1" height="1.0" fill="#E69F00"/><rect x="178.8" y="183.3" width="18.1" height="66.7" fill="#56B4E9"/><text x="187.8" y="180.3" text-anchor="middle" font-size="9" fill="#333">1</text><rect x="196.9" y="250.0" width="18.1" height="1.0" fill="#009E73"/><text x="251.2" y="266" text-anchor="middle" font-size="10" fill="#333">knowledge_gain</text><rect x="233.1" y="183.3" width="18.1" height="66.7" fill="#E69F00"/><text x="242.2" y="180.3" text-anchor="middle" font-size="9" fill="#333">1</text><rect x="251.2" y="183.3" width="18.1" height="66.7" fill="#56B4E9"/><text x="260.3" y="180.3" text-anchor="middle" font-size="9" fill="#333">1</text><rect x="269.4" y="250.0" width="18.1" height="1.0" fill="#009E73"/><text x="323.8" y="266" text-anchor="middle" font-size="10" fill="#333">retention</text><rect x="305.6" y="250.0" width="18.1" height="1.0" fill="#E69F00"/><rect x="323.8" y="250.0" width="18.1" height="1.0" fill="#56B4E9"/><rect x="341.9" y="183.3" width="18.1" height="66.7" fill="#009E73"/><text x="350.9" y="180.3" text-anchor="middle" font-size="9" fill="#333">1</text><text x="396.2" y="266" text-anchor="middle" font-size="10" fill="#333">engagement</text><rect x="378.1" y="183.3" width="18.1" height="66.7" fill="#E69F00"/><text x="387.2" y="180.3" text-anchor="middle" font-size="9" fill="#333">1</text><rect x="396.2" y="250.0" width="18.1" height="1.0" fill="#56B4E9"/><rect x="414.4" y="250.0" width="18.1" height="1.0" fill="#009E73"/><text x="468.8" y="266" text-anchor="middle" font-size="10" fill="#333">ai_dependency</text><rect x="450.6" y="250.0" width="18.1" height="1.0" fill="#E69F00"/><rect x="468.8" y="50.0" width="18.1" height="200.0" fill="#56B4E9"/><text x="477.8" y="47.0" text-anchor="middle" font-size="9" fill="#333">3</text><rect x="486.9" y="250.0" width="18.1" height="1.0" fill="#009E73"/><text x="541.2" y="266" text-anchor="middle" font-size="10" fill="#333">code_quality</text><rect x="523.1" y="250.0" width="18.1" height="1.0" fill="#E69F00"/><rect x="541.2" y="250.0" width="18.1" height="1.0" fill="#56B4E9"/><rect x="559.4" y="183.3" width="18.1" height="66.7" fill="#009E73"/><text x="568.4" y="180.3" text-anchor="middle" font-size="9" fill="#333">1</text><text x="613.8" y="266" text-anchor="middle" font-size="10" fill="#333">completion_time</text><rect x="595.6" y="183.3" width="18.1" height="66.7" fill="#E69F00"/><text x="604.7" y="180.3" text-anchor="middle" font-size="9" fill="#333">1</text><rect x="613.8" y="250.0" width="18.1" height="1.0" fill="#56B4E9"/><rect x="631.9" y="250.0" width="18.1" height="1.0" fill="#009E73"/><line x1="65" y1="250.0" x2="70" y2="250.0" stroke="#999"/><text x="62" y="253.0" text-anchor="end" font-size="9" fill="#666">0</text><line x1="65" y1="183.3" x2="70" y2="183.3" stroke="#999"/><text x="62" y="186.3" text-anchor="end" font-size="9" fill="#666">1</text><line x1="65" y1="116.7" x2="70" y2="116.7" stroke="#999"/><text x="62" y="119.7" text-anchor="end" font-size="9" fill="#666">2</text><line x1="65" y1="50.0" x2="70" y2="50.0" stroke="#999"/><text x="62" y="53.0" text-anchor="end" font-size="9" fill="#666">3</text><text x="360.0" y="30" text-anchor="middle" font-size="14" font-weight="700" fill="#111">Effect direction by outcome type</text><rect x="70" y="8" width="10" height="10" fill="#E69F00"/><text x="84" y="17" font-size="10" fill="#333">Positive effect</text><rect x="267" y="8" width="10" height="10" fill="#56B4E9"/><text x="281" y="17" font-size="10" fill="#333">Negative effect</text><rect x="464" y="8" width="10" height="10" fill="#009E73"/><text x="478" y="17" font-size="10" fill="#333">Null effect</text><text x="20" y="290" font-size="11" fill="#333333" font-style="italic">Fig. 1. Counts of positive / negative / null effects per outcome type (based on effect_direction; publication figure, theme-independent). Source: EduEvidence result.json.</text></svg>